<?xml version="1.0" encoding="utf-8"?>
<svg width="512" height="512" viewBox="0 0 512 512" xmlns="http://www.w3.org/2000/svg"
     xmlns:xlink="http://www.w3.org/1999/xlink">
    <defs>
    <svg viewBox="0 0 128 128" height="100%" width="100%" pointer-events="none" display="block" id="svg-1" >
        <path fill="#448AFF" d="M0 0h128v128H0z"/>
        <g fill="#00BFA5">
            <path d="M73 18.7c-4.8 0-9.7.8-14 2.3-.1.1-.2.2-.4.3l-7.3 4.6c-.6.4-1.4.4-2 .1-.3-.2-.6-.4-.8-.7l-.7-1.1c-.6-1-.3-2.2.6-2.8l7.3-4.6c.4-.2.8-.3 1.2-.3-5.5-3-23.7-10.7-33.7 10.7-11.8 25.4 11 50.2-14.4 62.6 0 0 26.2 13.7 40.9-24.8 3.7 3.2 8.8 5.8 16 7.4-.6-5.6.8-9.8-2.1-12.8-1.3-1.4-2.7-1.5-4-2.4-.7-.5-1.4-.9-2-1.3-1.5-.9-2.6-1.3-2.8-1.4-1.1-1-1.9-2.4-2.1-4.1-.5-3.6-2.2-6.9 1.1-7.4.8-.1 1.6-.1 2.4.2 8-1.5 11.6-6.7 12.8-8.9 3.4 4.8 11.7 9.8 31.9 6.8.3 1.1.6 1.2.8 2.4l.5-1.3c-.1-13-13.2-23.5-29.2-23.5zM56.1 43.2zm5.3 46.5s6 8.6 19.4 9.7c5.1.4 11.3-.3 18.6-2.9-.1-.6-.3-1.2-.4-1.7-.2-1.1-3.2-18-3.4-23.6-.2-6.2.6-10 1.6-12.4h7.3l-2.1-8.5c-.1-2-.4-3.9-.6-5.6 0-.3-.1-.7-.2-1-.2-1.1-.4-2.3-.8-3.4-20.2 3-28.5-2-31.9-6.8-1.2 2.1-4.8 7.4-12.8 8.9-.8-.2-1.6-.3-2.4-.2-3.3.5-5.6 3.8-5.1 7.4.2 1.7 1 3.1 2.1 4.1.2.1 1.3.5 2.8 1.4.6.4 1.3.8 2 1.3 1.3.9 2.6 2 4 3.4 2.9 3 5.6 7.2 6.1 12.8.5 4.5-.6 10.2-4.2 17.1zm27.5-41.2c.7 0 1.3.6 1.3 1.3s-.6 1.3-1.3 1.3-1.3-.6-1.3-1.3.6-1.3 1.3-1.3zm-32.8-5.3c.1-.1 0-.1 0 0zm-2.4 57.7l.2-.2-.2.2z"/>
            <circle cx="88.9" cy="49.8" r="2"/>
            <path d="M80.8 99.3c-13.3-1.1-19.4-9.7-19.4-9.7-1.8 3.4-4.3 7.1-7.5 11l-.3.3c-.4.5-.9 1.1-1.4 1.7-.7.9-1.6 2.1-2.8 3.7-2.3 3.2-5.4 7.8-8.8 13.5-1.4 2.4-2.9 5.1-4.4 8 0 0 0 .1-.1.1h71.3c-.6-1.6-1.3-3.2-1.7-4.8-2.2-8.6-4.6-17.9-6.5-26.8-7.2 2.8-13.3 3.5-18.4 3zM55.7 16.7l-7.3 4.6c-1 .6-1.3 1.9-.6 2.8l.7 1.1c.2.3.5.6.8.7.6.3 1.4.3 2-.1l7.3-4.6.4-.3c.7-.7.8-1.7.3-2.5l-.7-1.1c-.4-.6-1-.9-1.6-1-.5 0-1 .1-1.3.4z"/>
        </g>
        <path fill="#444"
              d="M73 18.7c-4.8 0-9.7.8-14 2.3-.1.1-.2.2-.4.3l-7.3 4.6c-.6.4-1.4.4-2 .1-.3-.2-.6-.4-.8-.7l-.7-1.1c-.6-1-.3-2.2.6-2.8l7.3-4.6c.4-.2.8-.3 1.2-.3-5.5-3-23.7-10.7-33.7 10.7-11.8 25.4 11 50.2-14.4 62.6 0 0 26.2 13.7 40.9-24.8 3.7 3.2 8.8 5.8 16 7.4-.6-5.6.8-9.8-2.1-12.8-1.3-1.4-2.7-1.5-4-2.4-.7-.5-1.4-.9-2-1.3-1.5-.9-2.6-1.3-2.8-1.4-1.1-1-1.9-2.4-2.1-4.1-.5-3.6-2.2-6.9 1.1-7.4.8-.1 1.6-.1 2.4.2 8-1.5 11.6-6.7 12.8-8.9 3.4 4.8 11.7 9.8 31.9 6.8.3 1.1.6 1.2.8 2.4l.5-1.3c-.1-13-13.2-23.5-29.2-23.5zM56.1 43.2z"/>
        <path fill="#FFE0B2"
              d="M61.4 89.7s6 8.6 19.4 9.7c5.1.4 11.3-.3 18.6-2.9-.1-.6-.3-1.2-.4-1.7-.2-1.1-3.2-18-3.4-23.6-.2-6.2.6-10 1.6-12.4h7.3l-2.1-8.5c-.1-2-.4-3.9-.6-5.6 0-.3-.1-.7-.2-1-.2-1.1-.4-2.3-.8-3.4-20.2 3-28.5-2-31.9-6.8-1.2 2.1-4.8 7.4-12.8 8.9-.8-.2-1.6-.3-2.4-.2-3.3.5-5.6 3.8-5.1 7.4.2 1.7 1 3.1 2.1 4.1.2.1 1.3.5 2.8 1.4.6.4 1.3.8 2 1.3 1.3.9 2.6 2 4 3.4 2.9 3 5.6 7.2 6.1 12.8.5 4.5-.6 10.2-4.2 17.1zm27.5-41.2c.7 0 1.3.6 1.3 1.3s-.6 1.3-1.3 1.3-1.3-.6-1.3-1.3.6-1.3 1.3-1.3zm-32.8-5.3c.1-.1 0-.1 0 0z"/>
        <path fill="#FFCC80" d="M53.7 100.9l.2-.2-.2.2z"/>
        <circle fill="#444" cx="88.9" cy="49.8" r="2"/>
        <path fill="#FF5722"
              d="M80.8 99.3c-13.3-1.1-19.4-9.7-19.4-9.7-1.8 3.4-4.3 7.1-7.5 11l-.3.3c-.4.5-.9 1.1-1.4 1.7-.7.9-1.6 2.1-2.8 3.7-2.3 3.2-5.4 7.8-8.8 13.5-1.4 2.4-2.9 5.1-4.4 8 0 0 0 .1-.1.1h71.3c-.6-1.6-1.3-3.2-1.7-4.8-2.2-8.6-4.6-17.9-6.5-26.8-7.2 2.8-13.3 3.5-18.4 3z"/>
        <path fill="#00BFA5"
              d="M55.7 16.7l-7.3 4.6c-1 .6-1.3 1.9-.6 2.8l.7 1.1c.2.3.5.6.8.7.6.3 1.4.3 2-.1l7.3-4.6.4-.3c.7-.7.8-1.7.3-2.5l-.7-1.1c-.4-.6-1-.9-1.6-1-.5 0-1 .1-1.3.4z"/>
    </svg>
    <svg viewBox="0 0 128 128" height="100%" width="100%" pointer-events="none" display="block" id="svg-2" >
        <path fill="#FFFF8D" d="M0 0h128v128H0z"/>
        <path fill="#C2C2C2" d="M51.7 31.4v-22s-19.6 2.5-15.8 29.9c11 0 14.8-4.3 15.8-7.9z"/>
        <path fill="#848484"
              d="M94.1 39.8c.1-1 0-2-.1-3 0-1-.1-1.9-.2-2.9-.2-1.8-.4-3.5-.8-5.2-.6-2.9-1.5-5.8-2.9-8.4-1.1-2.2-2.6-4.2-4.3-6-1.6-1.6-3.3-2.9-5.3-3.9-1.8-1-3.8-1.7-5.8-2.2-2-.5-4-.8-6-.9-1.9-.1-3.8-.1-5.7 0-1.7.1-3.3.3-5 .6-1.3.2-2.5.5-3.8.8l-2.2.6-.4.1v20.8c0 1-.1 1.8.4 2.7.2.3.5.6.6.9.3.9.7 1.8 1.2 2.7 1.1 1.8 2.7 3.4 4.7 4.3 2.4 1.1 5.1 1.4 7.8 1.6 4.8.3 9.6.4 14.3.3 2.2 0 4.3-.3 6.4-.9 1.2-.3 2.4-.6 3.6-1 .6-.2 1.2-.4 1.8-.5.6-.2 1.2-.5 1.7-.5z"/>
        <path fill="#FFE0B2"
              d="M66.8 116.8l17.9-8.7 3.1-8.2c-15.1-17 1.2-31.6 2.3-32.5h.1l13.2-11.1c1.5-1.2 2.5-3 2.8-5 .6-4.4-2.5-8.4-6.9-9.1-1.5-.2-3 0-4.3.6-.2-1-.5-1.9-.8-2.9-26.9 3.7-37.9-2.5-42.4-8.4-1.6 2.6-5.1 6.1-15.8 7.9-.2.9-.5 2-.8 3.1-1.2-.4-2.4-.6-3.8-.4-4.4.6-7.5 4.7-6.9 9.1.3 2 1.3 3.8 2.8 5l7.5 6.4c4.2 4.5 18.4 21.7 9 37l.7 3.7 4.7 4.6 17.6 8.9z"/>
        <path fill="#055524" d="M39.8 104.7zm54.3-.4l-.8 1.5-6.8 12.1V128H128v-2.3z"/>
        <path fill="#FFE0B2" d="M40.4 103.9c-.2.2-.3.4-.5.5 0 0-.1.1-.1.2v.1l.6-.8z"/>
        <circle fill="#444" cx="80" cy="51.7" r="2"/>
        <circle fill="#444" cx="54.3" cy="51.7" r="2"/>
        <path fill="#055524"
              d="M39.8 104.7c-3.2.9-6.1 2.7-8.6 5.5l-.2.2s-.5.6-1.5 1.7c-.9 1.1-2.2 2.6-3.7 4.5-2.3 2.9-5.1 6.7-8.3 11.4h31v-7.8l-8.7-15.5z"/>
        <path fill="#848484" d="M65.3 67.3s2.7 9.8 14.5 9.8c0 0 3.9-18.5-14.5-18.5v8.7z"/>
        <path fill="#C2C2C2" d="M65.3 67.3v-8.7C46.9 58.6 50.8 77 50.8 77c11.8 0 14.5-9.7 14.5-9.7z"/>
        <path fill="#A7FFEB" d="M80.9 128h5.6v-10.1zm-21 0h13.8l-6.9-10zm-11.5 0h4.3l-4.3-7.8z"/>
        <path fill="#1DE9B6"
              d="M66.8 118l-.5-.8.5-.4-22.9-17.3h-.1l-3.4 4.4-.6.8 8.6 15.5 4.3 7.8h7.2zm26.5-12.2l.8-1.5-6.4-4.4-20.9 16.9-.5.4.5.8 6.9 10h7.2l5.6-10.1z"/>
    </svg>
    <svg viewBox="0 0 128 128" height="100%" width="100%" pointer-events="none" display="block" id="svg-3" >
        <path fill="#FFCC80" d="M41.6 123.8s0 .1-.1.1l.3-.4c-.1.2-.1.2-.2.3z"/>
        <path fill="#8C9EFF" d="M0 0h128v128H0z"/>
        <path fill="#C2C2C2"
              d="M34.8 79.5c-2.5-3.4-5.9-6.4-6.9-10.3v-.1l-.6-.5c-.3-1.2.6-2 .5-3l-2.4-1h-6.9s0 17 17.4 17.3c-.9-.9-.7-1.8-1.1-2.4z"/>
        <path fill="#CFD8DC"
              d="M21.9 64.2l-.1-.3c0-.1 0-.2-.1-.4v-1l.1-.3c.1-.1.1-.2.1-.3.1-.1.1-.2.1-.2.2-.4.1-.8-.2-1.1-.4-.4-1-.4-1.3 0l-.2.2-.2.2c-.1.1-.2.2-.3.4l-.3.6-.3.6c-.1.2-.2.4-.2.7 0 .2-.1.5-.1.8v.5h3c.2-.2.1-.3 0-.4z"/>
        <path fill="#eee"
              d="M116.5 65.2c.1.1.2.1.2.2 0-.1-.1-.2-.2-.2zm8.2 6.1l.6.3c-.3-.1-.4-.2-.6-.3zm1.7 1l.6.3c-.2 0-.4-.1-.6-.3zm-3.4-2.1l.5.3c-.2 0-.4-.2-.5-.3zm-8-6.5zm-.1 64.1c-12-17.2-7.6-52-3.1-67.6v-.1c-3.5-4.2-7.8-11.7-10.2-18.7-1.7-5-4-8.8-6.4-11.8l-1.6-2-10.7 11.8c-1.5 2.1-3.3 1.8-4.1-.6l-7.1-17.3c-.3-.9-.3-1.9 0-2.7.3-1.1-.1-2.1.7-3l-2-.1c-1.3 0-2.5.1-3.7.3-1.7-.3-3.4-.5-5.1-.5-11.9 0-21.9 8.1-24.8 19.2-.5 1.8-.7 3.7-.8 5.6-1.2 3.6-4.2 7.7-11.5 8.4 1.3.4 2.2 1.9 2 3.6l-.5 2.8c-.3 2-1.2 2.4-2.2.9l1.6 8.6.2.9c.1 1.1.3 2.2.6 3.4 1 4 3.2 8.2 7.8 10.9.3.6 1 1.3 2 2.1 8.2 6.7 36 20.7 27.8 46.1h51.3c0-.1-.1-.1-.2-.2zM34.5 59.3c.5 0 1 .4 1 1 0 .5-.4 1-1 1-.5 0-1-.4-1-1s.4-1 1-1zm7.4 3.9c.5 0 1 .4 1 1 0 .5-.4 1-1 1-.5 0-1-.4-1-1 0-.5.5-1 1-1zm-1-8.5c-.5 0-1-.4-1-1 0-.5.4-1 1-1 .5 0 1 .4 1 1s-.5 1-1 1zm3.9-10.9c-.9 0-1.6-.7-1.6-1.6 0-.9.7-1.6 1.6-1.6.9 0 1.6.7 1.6 1.6 0 .9-.7 1.6-1.6 1.6zm73.3 22.7c.1.1.2.2.4.3-.2-.1-.3-.2-.4-.3zm3.2 2.6l.5.3-.5-.3zm-1.6-1.3l.4.3c-.1 0-.3-.1-.4-.3z"/>
        <path fill="#C2C2C2"
              d="M114.9 127.8l.2.2H128V73.2l-1-.6-.6-.3-1.2-.7-.6-.3-1.2-.7-.5-.3-1.2-.8-.5-.3-1.2-.9-.4-.3-1.2-1c-.1-.1-.2-.2-.4-.3l-1.3-1.2c-.1-.1-.2-.1-.2-.2l-1.5-1.5c-1.5-1.6-3-3.3-4.4-5.1-4.6 15.4-13 52.7 4.3 69.1z"/>
        <path fill="#646464"
              d="M26 55.1l.4-2.8c.2-1.8-.6-3.2-2-3.6-.3-.1-.7-.2-1.1-.1-2 .1-2.7 1.9-1.6 3.8l1.8 3.3c.1.2.2.3.3.4 1 1.3 1.9 1 2.2-1z"/>
        <circle fill="#444" cx="44.8" cy="42.2" r="2"/>
        <circle fill="#CFD8DC" cx="34.5" cy="60.3" r="1"/>
        <circle fill="#CFD8DC" cx="40.9" cy="53.7" r="1"/>
        <circle fill="#CFD8DC" cx="41.9" cy="64.2" r="1"/>
        <path fill="#646464"
              d="M70.7 18.8c-.3.8-.3 1.8 0 2.7l8.1 19.3c.8 2.5 2.6 2.7 4.1.6l12.3-11.8 1.4-1.3c.3-.4.5-.9.6-1.3.4-1.2.3-2.4-.1-3.6-1.1-4.3-5.6-8.9-11.2-10.3-5.6-1.4-10.9-.2-13.6 2.7-.8.8-1.3 1.8-1.6 3z"/>
    </svg>
    <svg viewBox="0 0 128 128" height="100%" width="100%" pointer-events="none" display="block" id="svg-4"  >
        <path fill="#B9F6CA" d="M0 0h128v128H0z"/>
        <path fill="#444"
              d="M50.4 75.7c-1.6-1.6-3.2-2.9-4.7-4-.9-.6-1-1.7-1.7-2.2-1.8-1-3.2-5.9-5.3-3.4l-.5.8-.4-.9c-1.3-1.2-1-.4-1.3-2.3-.5-4.2 1.2-7.2 5.1-7.8 1-.1 2-.1 2.9.2 9.5-1.8 13.7-7.4 15.2-10 4 5.7 14.3 11.4 38.3 7.8 2.8-4.7 4.5-10.2 4.5-16C102.4 20.8 88.6 7 71.6 7c-6.7 0-12.8 2.1-17.9 5.7L27.9 31C16.3 36.6 8.3 48.5 8.3 62.2c0 19.1 15.5 34.6 34.6 34.6 4.6 0 9-.9 13-2.5.2-8.4-1.4-14.5-5.5-18.6zm-5.9-21.6z"/>
        <path fill="#8D6E63"
              d="M73.7 122c6.1.5 13.4-.3 22-3.5-.1-.7-.3-1.4-.5-2.1-.3-1.3-3.8-21.4-4-28.1-.1-7.3.8-11.9 2-14.7h8.7l-2.5-10.1c-.2-2.4-.4-4.7-.7-6.6-.2-1.8-.3-2.3-.8-3.9-24 3.6-34.2-3.7-38.2-9.4-1.4 2.5-5.7 8.8-15.3 10.5-.9-.3-1.9-.3-2.9-.2-3.9.6-6.7 4.5-6.1 8.8.3 2 1.2 3.6 2.5 4.8.2.1 1.5.6 3.3 1.7.7.4 1.6.9 2.4 1.6 1.5 1.1 3.1 2.4 4.7 4 4 4.1 7.6 10.2 7.4 18.5-.1 4.9-1.6 10.6-5.1 17.2.1 0 7.3 10.2 23.1 11.5zM44.5 54.1z"/>
        <path fill="#FFCC80" d="M41.6 123.8s.1-.2.2-.3c-.1.2-.1.2-.2.3z"/>
        <circle fill="#444" cx="83.5" cy="63.1" r="2"/>
        <path fill="#0097A7"
              d="M73.7 122c-15.9-1.3-23-11.5-23-11.5-2.1 4-5.1 8.4-8.9 13.1l-.3.4c-.5.6-1.1 1.3-1.7 2-.5.6-1 1.3-1.6 2.1h59.7c-.7-3.2-1.5-6.4-2.1-9.5-8.7 3.1-16 3.9-22.1 3.4z"/>
    </svg>
    <svg viewBox="0 0 128 128" height="100%" width="100%" pointer-events="none" display="block" id="svg-5" >
        <path fill="#FFCC80" d="M41.6 123.8s0 .1-.1.1l.3-.4c-.1.2-.1.2-.2.3z"/>
        <path fill="#FFFF8D" d="M0 0h128v128H0z"/>
        <path fill="#F4B400"
              d="M110.3 91.4l-.5-.5c.1.2.3.4.5.5zm-4.4-4.5l.4.5c-.1-.2-.3-.4-.4-.5zm9.8 9.5c.2.2.4.4.7.6-.3-.2-.5-.4-.7-.6zM104.3 85c.2.2.3.4.5.5-.2-.1-.4-.3-.5-.5zm3.7 4.1zm16.9 14l.9.6c-.3-.3-.6-.4-.9-.6zm-28.5-29l.1.2c-.1 0-.1-.1-.1-.2zm15.2 18.6c.2.2.4.4.7.6l-.7-.6zm10 8.2l.9.6-.9-.6zm-18.8-17.7l.4.5c-.1-.1-.3-.3-.4-.5zm-1.4-1.7c.1.1.1.2.2.2-.1 0-.1-.1-.2-.2zm12.2 13l.7.6c-.2-.1-.5-.4-.7-.6zm-15-16.8c.1.1.1.2.2.2l-.2-.2zm-1.2-1.8l.2.3c0-.1-.1-.2-.2-.3zm28.4 27.7l-.9-.6-2.4-1.5-.9-.6c-1-.7-2.1-1.4-3.1-2.2l-2.2-1.8c-.2-.2-.4-.4-.7-.6-.5-.4-1-.8-1.4-1.2l-.7-.6-1.3-1.2-.7-.6c-.5-.4-.9-.9-1.3-1.3l-.5-.5-1.8-1.8c-.6-.6-1.1-1.2-1.6-1.8l-.4-.5-1.2-1.3c-.2-.2-.3-.4-.5-.5l-1.1-1.3-.4-.5-1.2-1.5c-.1-.1-.1-.2-.2-.2-.9-1.2-1.8-2.4-2.6-3.6-.1-.1-.1-.2-.2-.2l-1-1.5-.2-.3c-.3-.5-.6-1-1-1.5l-.1-.2c-1.1-1.8-2-3.5-2.9-5.2-3.1-6-4.8-11.4-5.7-15.9-.2-.9-.3-1.7-.4-2.6L85 13l-8 10.2c-3.7-2.6-8.2-4.2-13.1-4.2s-9.4 1.5-13.1 4.1L42.7 13l-1.8 29-7.7 71.8h.2c-.1 1-.2 2-.2 3 0 4 .8 7.7 2.1 11.2H128v-23.1c-.7-.4-1.5-.8-2.2-1.3zM55 38.4c-.9 0-1.6-.7-1.6-1.6 0-.9.7-1.6 1.6-1.6.9 0 1.6.7 1.6 1.6 0 .8-.7 1.6-1.6 1.6zm17.9 0c-.9 0-1.6-.7-1.6-1.6 0-.9.7-1.6 1.6-1.6.9 0 1.6.7 1.6 1.6 0 .8-.7 1.6-1.6 1.6z"/>
        <circle fill="#444" cx="72.9" cy="36.7" r="2"/>
        <circle fill="#444" cx="55" cy="36.7" r="2"/>
        <path fill="#444" d="M61.6 39.5c-.5 1-.1 1.7 1 1.7h4.6c1.1 0 1.6-.8 1-1.7l-2.3-4c-.5-1-1.4-1-2 0l-2.3 4z"/>
        <path fill="#FF5722"
              d="M92.5 102.7c8.3 11.3 23.6 14.4 35.5 7.8v-5.6l-2.2-1.3-.9-.6-2.4-1.5-.9-.6c-1-.7-2.1-1.4-3.1-2.2l-2.2-1.8c-.2-.2-.4-.4-.7-.6-.5-.4-1-.8-1.4-1.2l-.7-.6-1.3-1.2-.7-.6c-.5-.4-.9-.9-1.3-1.3l-.5-.5-1.8-1.8c-.6-.6-1.1-1.2-1.6-1.8l-.4-.5-1.2-1.3c-.2-.2-.3-.4-.5-.5l-1.1-1.3-.4-.5-1.2-1.5c-.1-.1-.1-.2-.2-.2-.9-1.2-1.8-2.4-2.6-3.6-.1-.1-.1-.2-.2-.2l-1-1.5-.2-.3c-.3-.5-.6-1-1-1.5l-.1-.2c-1.1-1.8-2-3.5-2.9-5.2-7.7 9.4-8.4 23.4-.8 33.7z"/>
    </svg>
    </defs>
</svg>